<svg width="0" height="0" class="hidden">
  <symbol xmlns="http://www.w3.org/2000/svg" viewBox="0 0 1039.258 1117.477" id="Bg graphics - S7">
    <g transform="rotate(-45.97 619.566 1679.859)">
      <ellipse cx="367.671" cy="367.314" rx="367.671" ry="367.314" transform="translate(960 489.308)" fill="#e61b72"></ellipse>
      <circle cx="205.054" cy="205.054" r="205.054" transform="translate(1221.756 311)" fill="#4cb6de"></circle>
      <path d="M1221.755 516.054q0-5.723.31-11.37a368.5 368.5 0 01383.667 111.614 205 205 0 01-178.923 104.809c-113.248 0-205.054-91.8-205.054-205.053z" fill="#400d8c"></path>
    </g>
  </symbol>
  <symbol xmlns="http://www.w3.org/2000/svg" viewBox="0 0 264.331 102.454" id="Logo">
    <path d="M16.842 97.205l.115-11.751-3.346 11.804h-2.679l-3.387-11.9.134 11.9H3.981V81.565h5.148l3.119 10.315 3.081-10.315h5.167v15.693zm15.137-.004v-1.282a3.827 3.827 0 01-3.464 1.684 5.933 5.933 0 01-5.894-6.3 6.009 6.009 0 015.894-6.277 3.943 3.943 0 013.464 1.589v-1.241h3.526v11.77zm0-5.894a3 3 0 10-1.859 2.778 2.986 2.986 0 001.859-2.778zm13.396 5.894l-3.33-5.741v5.741h-3.521V81.508h3.521v8.17l3.253-4.249h4.191l-4.44 5.167 4.306 6.6zm5.417-13.033v-2.66h3.521v2.66zm0 13.033v-11.77h3.521v11.77zm13.434 0v-6.545c0-1.588-.555-2.335-1.914-2.335s-2.009.785-2.009 2.392v6.488h-3.445v-11.77h3.273v1.187a3.368 3.368 0 013.2-1.646 4.153 4.153 0 014.363 4.65v7.521zm14.679-1.379a3.54 3.54 0 01-3.292 1.761 5.894 5.894 0 01-5.914-6.2 5.99 5.99 0 015.914-6.335 3.828 3.828 0 013.273 1.474v-1.091h3.521v10.507a8.116 8.116 0 01-.632 3.617 6.756 6.756 0 01-6.105 2.871 5.32 5.32 0 01-5.741-4.134h4.156a2.067 2.067 0 002.067 1.167c1.78 0 2.851-1.167 2.851-3.311zm0-4.459a2.852 2.852 0 10-2.909 2.909 2.775 2.775 0 002.928-2.909zm17.607-2.641c0-.67-.517-.88-1.091-.88s-1.014.344-1.014.785.574.957 2.2 1.378c2.813.746 3.713 1.914 3.713 3.579a4.268 4.268 0 01-4.784 4.019 4.421 4.421 0 01-4.8-3.828h3.5a1.225 1.225 0 001.34 1.072c.612 0 1.225-.364 1.225-.9s-.4-1-2.163-1.55c-2.966-.919-3.828-2.086-3.828-3.464a4.172 4.172 0 014.555-3.828 4.1 4.1 0 014.536 3.694zm8.42 3.637a2.622 2.622 0 002.756 2.22 2.45 2.45 0 002.143-1.091h3.6a6.086 6.086 0 11.459-2.067 4.909 4.909 0 010 .938zm5.378-2.373a2.775 2.775 0 00-5.339 0zm12.856 7.215v-6.545c0-1.588-.555-2.335-1.914-2.335s-2.01.785-2.01 2.392v6.488h-3.516v-11.77h3.292v1.187a3.387 3.387 0 013.2-1.646 4.172 4.172 0 014.383 4.651v7.521zm11.029-8.479c0-.67-.517-.88-1.072-.88s-1.033.344-1.033.785.574.957 2.22 1.378c2.794.746 3.713 1.914 3.713 3.579a4.287 4.287 0 01-4.8 4.019 4.4 4.4 0 01-4.785-3.828h3.483a1.225 1.225 0 001.34 1.072c.612 0 1.244-.364 1.244-.9s-.4-1-2.163-1.55c-2.986-.919-3.828-2.086-3.828-3.464a4.191 4.191 0 014.574-3.828 4.076 4.076 0 014.517 3.694zm8.419 3.637a2.622 2.622 0 002.756 2.22 2.45 2.45 0 002.143-1.091h3.6a6.086 6.086 0 11.459-2.067 4.9 4.9 0 010 .938zm5.378-2.373a2.775 2.775 0 00-5.339 0zm17.817 7.559a6.258 6.258 0 116.354-6.3 6.143 6.143 0 01-6.354 6.3zm2.832-6.239a2.832 2.832 0 10-2.832 2.966 2.871 2.871 0 002.833-2.966zm5.627 5.895v-9.11h-1.3v-2.659h1.3v-.5c0-1.914.765-3.732 4.516-3.732h.555v2.66h-.134c-.9 0-1.359.23-1.359 1.206v.364h1.493v2.66h-1.492v9.11zm22.006 0v-1.282a3.828 3.828 0 01-3.521 1.665 6.3 6.3 0 010-12.554 4.593 4.593 0 013.464 1.4v-4.922h3.521v15.693zm0-5.952a1.256 1.256 0 10.019 0zm5.897-7.081v-2.66h3.521v2.66zm0 13.033v-11.77h3.521v11.77zm14.717-1.379a3.56 3.56 0 01-3.292 1.761 5.875 5.875 0 01-5.914-6.2 5.99 5.99 0 015.913-6.335 3.828 3.828 0 013.273 1.474v-1.091h3.521v10.507a8.116 8.116 0 01-.632 3.617 6.813 6.813 0 01-6.124 2.871c-3.33 0-5.493-1.914-5.741-4.134h4.076a2.048 2.048 0 002.048 1.167c1.78 0 2.871-1.167 2.871-3.311zm0-4.459a2.852 2.852 0 10-2.889 2.928 2.775 2.775 0 002.908-2.928zm6.259-7.195v-2.66h3.521v2.66zm0 13.033v-11.77h3.521v11.77zm6.87 0v-9.11h-1.742v-2.66h1.742v-3.923h3.521v3.923h1.684v2.66h-1.684v9.11zm15.272 0v-1.282a3.828 3.828 0 01-3.445 1.684 5.914 5.914 0 01-5.894-6.3 6.009 6.009 0 015.894-6.277 3.942 3.942 0 013.445 1.646v-1.244h3.521v11.77zm0-5.894a3 3 0 10-3 3 3 3 0 003-3zm6.181 5.894V81.508h3.521v15.693z"></path>
    <circle cx="2.928" cy="2.928" transform="translate(258.475 91.345)" fill="#e61b72" r="2.928"></circle>
    <path d="M15.004 23.462v21.631h4.344a8.727 8.727 0 006.66-2.871 13.683 13.683 0 000-16.267 8.421 8.421 0 00-6.66-2.488zm0-2.43h3a9.321 9.321 0 003.139-.325 7.33 7.33 0 002.66-1.914 10.3 10.3 0 001.914-3.081 10.586 10.586 0 00.708-3.828 11.483 11.483 0 00-.708-4.1 10.123 10.123 0 00-1.914-3.139 8.343 8.343 0 00-2.66-2.029 7.367 7.367 0 00-3.139-.727h-3zm8 1.378a30.469 30.469 0 018.478 1.474 17.5 17.5 0 013.139 1.4 12.27 12.27 0 012.737 2.105 10.373 10.373 0 011.914 2.871 9.358 9.358 0 01.727 3.828 12.172 12.172 0 01-1.072 5.072 10.105 10.105 0 01-3.5 4.038 18.487 18.487 0 01-6.392 2.622 42.7 42.7 0 01-9.7.938H0v-1l4-1.014V2.066l-4-1v-1h18.01a38.787 38.787 0 019.129.919 18.791 18.791 0 016.067 2.545 9.99 9.99 0 013.407 3.693 9.857 9.857 0 011.072 4.5 8.783 8.783 0 01-.632 3.445 8.92 8.92 0 01-1.665 2.6 10.317 10.317 0 01-2.335 1.914 16.751 16.751 0 01-2.7 1.187 24.324 24.324 0 01-7.349 1.282zM93.22 47.672a14.946 14.946 0 01-4.229-.536 14.279 14.279 0 01-3.158-1.263 10.392 10.392 0 01-2.6-1.914 11.059 11.059 0 01-1.167 1.321 7.347 7.347 0 01-1.167.938 6.6 6.6 0 01-1.34.727H77.91v-11.33h2.66a19.138 19.138 0 002.545 5.205 15.5 15.5 0 003.464 3.541 8.707 8.707 0 005.339 1.588 5.741 5.741 0 004.229-1.4 5.243 5.243 0 001.435-3.942 4.229 4.229 0 00-1.435-3.2 19.349 19.349 0 00-3.56-2.526c-1.435-.8-2.986-1.608-4.67-2.45a30.01 30.01 0 01-4.67-2.756 15.312 15.312 0 01-3.579-3.54 8.115 8.115 0 01-1.435-4.861 8.362 8.362 0 01.765-3.5 7.657 7.657 0 012.469-2.871 13.072 13.072 0 014.383-1.914 25.738 25.738 0 016.392-.708 11.214 11.214 0 013.674.574 14.336 14.336 0 012.871 1.3 15.315 15.315 0 012.526 1.8 8.545 8.545 0 011.167-1.3 13.715 13.715 0 011.167-.957c.44-.268.9-.517 1.34-.746h1.627v11.353h-2.66a24.217 24.217 0 00-2.469-5.148 16.937 16.937 0 00-3.215-3.56 7.081 7.081 0 00-4.727-1.646 4.172 4.172 0 00-3.043 1.34 4.632 4.632 0 00-1.3 3.33 4.823 4.823 0 001.435 3.483 17.031 17.031 0 003.579 2.718 46.075 46.075 0 004.67 2.469 31.72 31.72 0 014.67 2.718 15.848 15.848 0 013.56 3.387 7.406 7.406 0 011.435 4.574 9.378 9.378 0 01-.8 3.828 7.655 7.655 0 01-2.6 3.062 13.529 13.529 0 01-4.727 2.009 32.11 32.11 0 01-7.215.689m30.998-4.555a9.666 9.666 0 001.454 1.34 8.569 8.569 0 001.646.938 4.554 4.554 0 001.914.4 4.746 4.746 0 002.373-.631 5.129 5.129 0 001.914-2.335 17.932 17.932 0 001.263-4.765 55.363 55.363 0 00.478-7.942 52.4 52.4 0 00-.478-7.655 20.439 20.439 0 00-1.164-4.71 4.957 4.957 0 00-1.588-2.3 3.273 3.273 0 00-1.78-.612 4.363 4.363 0 00-2.66.842 8.574 8.574 0 00-1.914 1.914 13.144 13.144 0 00-1.454 2.66zm-10.68-27.674l-4-1v-1h6.009a8.306 8.306 0 013.827.785 9.569 9.569 0 012.373 1.742 7.771 7.771 0 011.455 2.469 12.512 12.512 0 012.2-3 12.232 12.232 0 012.966-2.067 10.046 10.046 0 014.517-.938 12.652 12.652 0 015.359 1.148 11.98 11.98 0 014.344 3.33 16.056 16.056 0 012.89 5.493 28.21 28.21 0 010 15.406 15.311 15.311 0 01-3 5.512 12.325 12.325 0 01-4.631 3.33 15.1 15.1 0 01-5.971 1.129 11.691 11.691 0 01-3.158-.4 12.467 12.467 0 01-2.431-.919 10.7 10.7 0 01-2.067-1.34v12.995l4 1.014v1h-18.682v-1l4-1.014zm54.079 31.099a4.134 4.134 0 002.277-.746 6.143 6.143 0 002.029-2.564 19.885 19.885 0 001.474-5 58.483 58.483 0 000-16.076 20.047 20.047 0 00-1.474-5.014 6.411 6.411 0 00-2.029-2.564 4.249 4.249 0 00-2.277-.727 4.191 4.191 0 00-2.258.727 6.43 6.43 0 00-2.042 2.569 20.128 20.128 0 00-1.454 5.014 56.55 56.55 0 000 16.076 19.967 19.967 0 001.454 4.994 6.164 6.164 0 002.048 2.564 4.077 4.077 0 002.258.746m0-34.027a21.32 21.32 0 017.406 1.206 14.812 14.812 0 019.071 9.071 23.347 23.347 0 010 14.813 14.807 14.807 0 01-9.071 9.071 23.712 23.712 0 01-14.813 0 15.5 15.5 0 01-5.569-3.5 15.311 15.311 0 01-3.5-5.569 23.712 23.712 0 010-14.813 15.174 15.174 0 013.5-5.569 15.5 15.5 0 015.569-3.5 21.32 21.32 0 017.406-1.206M195.129 0q5.99 0 6.009 5.99v22.353L212.87 15.98l-4.4-1.646v-1h12.669v1l-5.32 1.914-7.655 8.019 12.995 20.343 3.349 1v1h-8.669a10.736 10.736 0 01-3.081-.4 7.941 7.941 0 01-2.392-1.167 9.914 9.914 0 01-1.914-1.8 22.132 22.132 0 01-1.646-2.3l-5.741-9.014V44.61l4 1v1h-18.682v-1l4-1V1.99l-4-1v-1zM74.082 20.497a12.151 12.151 0 00-3.158-4.229 15.52 15.52 0 00-5.033-2.871 19.829 19.829 0 00-6.7-1.072 17.816 17.816 0 00-6.641 1.206 13.912 13.912 0 00-5.167 3.5 15.884 15.884 0 00-3.33 5.569 21.318 21.318 0 00-1.206 7.406 17.474 17.474 0 004.727 12.975 18.085 18.085 0 0013.282 4.689 15.006 15.006 0 005.206-.861 13.187 13.187 0 004-2.3 10.373 10.373 0 002.564-3.311 8.88 8.88 0 00.9-3.827h-2.392a7.119 7.119 0 01-.766 3.177 9.894 9.894 0 01-5.129 4.765 8.229 8.229 0 01-3.254.727 7.522 7.522 0 01-3-.689 6.355 6.355 0 01-2.526-2.335 12.592 12.592 0 01-1.665-4.4 33.223 33.223 0 01-.612-6.909c2.679 0 5.225-.1 7.655-.306s4.593-.421 6.469-.689a77.59 77.59 0 006.2-1.014l.345-1.129a9.529 9.529 0 01.23-1.225 13.61 13.61 0 000-1.646 12.229 12.229 0 00-1-5.206zm-9.99 5.741a8.063 8.063 0 01-.249 1.627 1.167 1.167 0 01-.325.689c-.67.134-1.474.249-2.392.344l-2.947.23c-1.148 0-2.488.1-4 .1a46.488 46.488 0 01.478-7.559 22.03 22.03 0 011.167-4.957 5.2 5.2 0 011.588-2.411 3.1 3.1 0 011.78-.632 3.349 3.349 0 011.761.536 4.842 4.842 0 011.607 1.8 13.838 13.838 0 011.167 3.292 23.446 23.446 0 01.459 5.052c-.1.651-.134 1.3-.191 1.895z"></path>
    <path d="M253.862 20.497a12.151 12.151 0 00-3.158-4.229 15.52 15.52 0 00-5.033-2.871 19.94 19.94 0 00-6.717-1.072 17.723 17.723 0 00-6.622 1.206 13.914 13.914 0 00-5.167 3.5 16.21 16.21 0 00-3.349 5.569 21.779 21.779 0 00-1.186 7.406 17.473 17.473 0 004.727 12.976 18.085 18.085 0 0013.282 4.689 14.89 14.89 0 005.186-.861 12.748 12.748 0 004-2.3 10.18 10.18 0 002.584-3.311 8.878 8.878 0 00.9-3.828h-2.392a7.119 7.119 0 01-.766 3.177 9.894 9.894 0 01-5.129 4.765 8.228 8.228 0 01-3.253.727 7.522 7.522 0 01-3-.689 6.355 6.355 0 01-2.526-2.335 12.979 12.979 0 01-1.684-4.4 34.767 34.767 0 01-.593-6.909c2.66 0 5.225-.1 7.655-.306s4.593-.421 6.469-.689a77.59 77.59 0 006.2-1.014c.1-.306.191-.689.325-1.129a12.458 12.458 0 00.249-1.225 13.648 13.648 0 000-1.646 12.231 12.231 0 00-1.002-5.201zm-9.99 5.741a8.063 8.063 0 01-.249 1.627 1.321 1.321 0 01-.325.689c-.67.134-1.474.249-2.392.344l-2.947.23c-1.148 0-2.488.1-4 .1a46.484 46.484 0 01.478-7.559 23.288 23.288 0 011.148-4.957 5.358 5.358 0 011.608-2.411 3.063 3.063 0 011.761-.632 3.426 3.426 0 011.78.536 4.651 4.651 0 011.588 1.8 12.344 12.344 0 011.167 3.292 22.178 22.178 0 01.478 5.052c.001.645-.037 1.295-.094 1.889z"></path>
  </symbol>
  <symbol xmlns="http://www.w3.org/2000/svg" viewBox="0 0 750 421.875" id="Bespoke video treatment_1px B">
    <defs>
      <clipPath id="a">
        <path fill="none" d="M0 0h750v421.875H0z"></path>
      </clipPath>
    </defs>
    <g clip-path="url(#a)">
      <path d="M0 0l-421.645 421.645M3.891 0l-421.645 421.645M7.786 0l-421.645 421.645M11.676 0l-421.645 421.645M15.571 0l-421.645 421.645M19.461 0l-421.645 421.645M23.356 0l-421.645 421.645M27.247 0l-421.645 421.645M31.141 0l-421.645 421.645M35.032 0l-421.645 421.645M38.926 0l-421.645 421.645M42.817 0l-421.645 421.645M46.71 0l-421.648 421.645M50.602 0l-421.645 421.645M54.496 0l-421.648 421.645M58.387 0l-421.645 421.645M62.281 0l-421.648 421.645M66.172 0l-421.645 421.645M70.066 0l-421.648 421.645M73.957 0l-421.645 421.645M77.851 0l-421.648 421.645M81.743 0l-421.645 421.645M85.636 0l-421.648 421.645M89.528 0l-421.645 421.645M93.421 0l-421.648 421.645M97.313 0l-421.645 421.645M101.207 0l-421.648 421.645M105.098 0l-421.645 421.645M108.992 0l-421.648 421.645M112.883 0l-421.645 421.645M116.774 0l-421.645 421.645M120.668 0l-421.645 421.645M124.559 0l-421.645 421.645M128.454 0l-421.645 421.645M132.344 0l-421.645 421.645M136.239 0l-421.645 421.645M140.129 0l-421.645 421.645M144.024 0l-421.645 421.645M147.915 0L-273.73 421.645M151.809 0l-421.645 421.645M155.7 0l-421.645 421.645M159.593 0l-421.648 421.645M163.485 0L-258.16 421.645M167.378 0L-254.27 421.645M171.27 0l-421.645 421.645M175.164 0l-421.648 421.645M179.055 0L-242.59 421.645M182.949 0l-421.648 421.645M186.84 0l-421.645 421.645M190.734 0l-421.648 421.645M194.625 0L-227.02 421.645M198.519 0l-421.648 421.645M202.411 0l-421.645 421.645M206.304 0l-421.648 421.645M210.196 0l-421.645 421.645M214.089 0l-421.648 421.645M217.981 0l-421.645 421.645M221.875 0l-421.648 421.645M225.766 0l-421.645 421.645M229.657 0l-421.645 421.645M233.551 0l-421.645 421.645M237.442 0l-421.645 421.645M241.336 0l-421.645 421.645M245.227 0l-421.645 421.645M249.122 0l-421.645 421.645M253.012 0l-421.645 421.645M256.907 0l-421.645 421.645M260.797 0l-421.645 421.645M264.692 0l-421.645 421.645M268.582 0l-421.645 421.645M272.476 0l-421.648 421.645M276.368 0l-421.645 421.645M280.261 0l-421.648 421.645M284.153 0l-421.645 421.645M288.046 0l-421.648 421.645M291.938 0l-421.645 421.645M295.832 0l-421.648 421.645M299.723 0l-421.645 421.645M303.617 0l-421.648 421.645M307.508 0l-421.645 421.645M311.402 0l-421.648 421.645M315.293 0l-421.645 421.645M319.187 0l-421.648 421.645M323.079 0L-98.566 421.645M326.972 0L-94.676 421.645M330.864 0L-90.781 421.645M334.757 0L-86.891 421.645M338.649 0L-82.996 421.645M342.54 0L-79.105 421.645M346.434 0L-75.211 421.645M350.325 0L-71.32 421.645M354.219 0L-67.426 421.645M358.11 0L-63.535 421.645M362.004 0L-59.641 421.645M365.895 0L-55.75 421.645M369.79 0L-51.855 421.645M373.68 0L-47.965 421.645M377.575 0L-44.07 421.645M381.465 0L-40.18 421.645M385.359 0L-36.289 421.645M389.25 0L-32.395 421.645M393.144 0L-28.504 421.645M397.036 0L-24.609 421.645M400.929 0L-20.719 421.645M404.821 0L-16.824 421.645M408.714 0L-12.934 421.645M412.606 0L-9.039 421.645M416.5 0L-5.148 421.645M420.391 0L-1.254 421.645M424.285 0L2.637 421.645M428.176 0L6.531 421.645M432.07 0L10.422 421.645M435.961 0L14.316 421.645M439.855 0L18.207 421.645M443.747 0L22.102 421.645M447.64 0L25.992 421.645M451.532 0L29.887 421.645M455.422 0L33.777 421.645M459.317 0L37.672 421.645M463.208 0L41.563 421.645M467.102 0L45.457 421.645M470.993 0L49.348 421.645M474.887 0L53.242 421.645M478.778 0L57.133 421.645M482.672 0L61.027 421.645M486.563 0L64.918 421.645M490.458 0L68.813 421.645M494.348 0L72.703 421.645M498.242 0L76.594 421.645M502.133 0L80.488 421.645M506.027 0L84.379 421.645M509.918 0L88.273 421.645M513.812 0L92.164 421.645M517.704 0L96.059 421.645M521.597 0L99.949 421.645M525.489 0L103.844 421.645M529.382 0L107.734 421.645M533.274 0L111.629 421.645M537.168 0L115.52 421.645M541.059 0L119.414 421.645M544.953 0L123.305 421.645M548.844 0L127.199 421.645M552.738 0L131.09 421.645M556.629 0L134.984 421.645M560.523 0L138.875 421.645M564.415 0L142.77 421.645M568.305 0L146.66 421.645M572.2 0L150.555 421.645M576.09 0L154.445 421.645M579.985 0L158.34 421.645M583.875 0L162.23 421.645M587.77 0L166.125 421.645M591.661 0L170.016 421.645M595.555 0L173.91 421.645M599.446 0L177.801 421.645M603.34 0L181.695 421.645M607.231 0L185.586 421.645M611.125 0L189.477 421.645M615.016 0L193.371 421.645M618.91 0L197.262 421.645M622.801 0L201.156 421.645M626.695 0L205.047 421.645M630.586 0L208.941 421.645M634.48 0L212.832 421.645M638.372 0L216.727 421.645M642.265 0L220.617 421.645M646.157 0L224.512 421.645M650.05 0L228.402 421.645M653.942 0L232.297 421.645M657.836 0L236.188 421.645M661.727 0L240.082 421.645M665.621 0L243.973 421.645M669.512 0L247.867 421.645M673.406 0L251.758 421.645M677.297 0L255.652 421.645M681.188 0L259.543 421.645M685.083 0L263.438 421.645M688.973 0L267.328 421.645M692.868 0L271.223 421.645M696.758 0L275.113 421.645M700.653 0L279.008 421.645M704.543 0L282.898 421.645M708.438 0L286.793 421.645M712.329 0L290.684 421.645M716.223 0L294.578 421.645M720.114 0L298.469 421.645M724.007 0L302.359 421.645M727.899 0L306.254 421.645M731.793 0L310.145 421.645M735.684 0L314.039 421.645M739.578 0L317.93 421.645M743.469 0L321.824 421.645M747.363 0L325.715 421.645M751.254 0L329.609 421.645M755.148 0L333.5 421.645M759.04 0L337.395 421.645M762.933 0L341.285 421.645M766.825 0L345.18 421.645M770.718 0L349.07 421.645M774.61 0L352.965 421.645M778.503 0L356.855 421.645M782.395 0L360.75 421.645M786.289 0L364.641 421.645M790.18 0L368.535 421.645M794.071 0L372.426 421.645M797.965 0L376.32 421.645M801.856 0L380.211 421.645M805.75 0L384.105 421.645M809.641 0L387.996 421.645M813.536 0L391.891 421.645M817.426 0L395.781 421.645M821.321 0L399.676 421.645M825.211 0L403.566 421.645M829.106 0L407.461 421.645M832.997 0L411.352 421.645M836.89 0L415.242 421.645M840.782 0L419.137 421.645M844.675 0L423.027 421.645M848.567 0L426.922 421.645M852.461 0L430.813 421.645M856.352 0L434.707 421.645M860.246 0L438.598 421.645M864.137 0L442.492 421.645M868.031 0L446.383 421.645M871.922 0L450.277 421.645M875.816 0L454.168 421.645M879.708 0L458.063 421.645M883.601 0L461.953 421.645M887.493 0L465.848 421.645M891.386 0L469.738 421.645M895.278 0L473.633 421.645M899.171 0L477.523 421.645M903.063 0L481.418 421.645M906.954 0L485.309 421.645M910.848 0L489.203 421.645M914.739 0L493.094 421.645M918.633 0L496.988 421.645M922.524 0L500.879 421.645M926.418 0L504.773 421.645M930.309 0L508.664 421.645M934.204 0L512.559 421.645M938.094 0L516.449 421.645M941.989 0L520.344 421.645M945.879 0L524.234 421.645M949.773 0L528.125 421.645M953.665 0L532.02 421.645M957.558 0L535.91 421.645M961.45 0L539.805 421.645M965.343 0L543.695 421.645M969.235 0L547.59 421.645M973.128 0L551.48 421.645M977.02 0L555.375 421.645M980.914 0L559.266 421.645M984.805 0L563.16 421.645M988.699 0L567.051 421.645M992.59 0L570.945 421.645M996.484 0L574.836 421.645M1000.375 0L578.73 421.645M1004.269 0L582.621 421.645M1008.161 0L586.516 421.645M1012.054 0L590.406 421.645M1015.946 0L594.301 421.645M1019.836 0L598.191 421.645M1023.731 0L602.086 421.645M1027.622 0L605.977 421.645M1031.516 0L609.871 421.645M1035.407 0L613.762 421.645M1039.301 0L617.656 421.645M1043.192 0L621.547 421.645M1047.086 0L625.441 421.645M1050.977 0L629.332 421.645M1054.872 0L633.227 421.645M1058.762 0L637.117 421.645M1062.656 0L641.008 421.645M1066.547 0L644.902 421.645M1070.441 0L648.793 421.645M1074.333 0L652.688 421.645M1078.226 0L656.578 421.645M1082.118 0L660.473 421.645M1086.011 0L664.363 421.645M1089.903 0L668.258 421.645M1093.796 0L672.148 421.645M1097.688 0L676.043 421.645M1101.582 0L679.934 421.645M1105.473 0L683.828 421.645M1109.367 0L687.719 421.645M1113.258 0L691.613 421.645M1117.152 0L695.504 421.645M1121.043 0L699.398 421.645M1124.937 0L703.289 421.645M1128.829 0L707.184 421.645M1132.719 0L711.074 421.645M1136.614 0L714.969 421.645M1140.504 0L718.859 421.645M1144.399 0L722.754 421.645M1148.289 0L726.644 421.645M1152.184 0L730.539 421.645M1156.075 0L734.43 421.645M1159.969 0L738.324 421.645M1163.86 0L742.215 421.645M1167.754 0L746.109 421.645M1171.645 0L750 421.645"></path>
    </g>
  </symbol>
  <symbol xmlns="http://www.w3.org/2000/svg" viewBox="0 0 957.438 808.103" id="Bg graphics - S3">
    <g transform="rotate(96.02 1068.808 214.017)">
      <ellipse cx="367.671" cy="367.314" rx="367.671" ry="367.314" transform="translate(960 489.308)" fill="#e61b72"></ellipse>
      <circle cx="205.054" cy="205.054" r="205.054" transform="translate(1221.756 311)" fill="#4cb6de"></circle>
      <path d="M1221.755 516.054q0-5.723.31-11.37a368.5 368.5 0 01383.667 111.614 205 205 0 01-178.923 104.809c-113.248 0-205.054-91.8-205.054-205.053z" fill="#400d8c"></path>
    </g>
  </symbol>
</svg>